<?xml version="1.0" encoding="utf-8"?>
<!-- Generator: Adobe Illustrator 16.0.2, SVG Export Plug-In . SVG Version: 6.00 Build 0)  -->
<!DOCTYPE svg PUBLIC "-//W3C//DTD SVG 1.1//EN" "http://www.w3.org/Graphics/SVG/1.1/DTD/svg11.dtd">
<svg version="1.1" id="Logo_DWA_4c" xmlns="http://www.w3.org/2000/svg" xmlns:xlink="http://www.w3.org/1999/xlink" x="0px"
	 y="0px" width="592px" height="248px" viewBox="0 0 592 248" enable-background="new 0 0 592 248" xml:space="preserve">
<path fill="#0075BF" d="M103.878,70.563c-9.721-12.054-21.973-17.5-39.279-17.5H15.987v18.654h21.514v0.016h24.766
	c9.916,0,17.887,2.719,23.721,9.525c6.807,7.584,7.391,20.42,7.391,41.029c0,20.613-0.584,33.445-7.391,41.029
	c-5.834,6.807-13.805,9.529-23.721,9.529H36.985V92.71H15.987v98.803h48.611c17.307,0,29.559-5.443,39.279-17.5
	c10.113-12.445,10.502-29.555,10.502-51.725C114.38,100.122,113.991,83.009,103.878,70.563z"/>
<g>
	<path fill="#0075BF" d="M258.462,191.513h-18.279l-28.197-97.031l-31.891,97.031h-18.277L121.759,53.063h22.168l28,98.979
		l31.699-98.979h16.916l27.807,98.979l29.949-98.979h24.115L258.462,191.513z"/>
	<path fill="#0075BF" d="M372.985,191.513l-9.527-27.805h-46.865l-9.523,27.805H284.7l46.867-138.449h16.92l46.863,138.449H372.985z
		 M340.511,84.372l-19.637,61.445h38.695L340.511,84.372z"/>
</g>
<g>
	<path fill="#8E8E8D" d="M27.243,235.585l-5.248-9.211l-3.148,3.779v5.432h-2.834v-18.684h2.834v9.395l7.635-9.395h3.465
		l-6.063,7.322l6.691,11.361H27.243z"/>
	<path fill="#8E8E8D" d="M36.419,235.585c-2.545,0-3.646-1.705-3.646-3.674v-15.01h2.676v14.854c0,1.023,0.367,1.547,1.443,1.547
		h1.182v2.283H36.419z"/>
	<path fill="#8E8E8D" d="M48.317,235.585v-1.205c-0.971,0.969-1.889,1.363-3.543,1.363s-2.756-0.395-3.57-1.207
		c-0.682-0.709-1.049-1.732-1.049-2.859c0-2.232,1.549-3.832,4.619-3.832h3.49v-0.945c0-1.707-0.813-2.494-2.912-2.494
		c-1.418,0-2.152,0.369-2.914,1.313l-1.732-1.652c1.234-1.471,2.52-1.943,4.75-1.943c3.676,0,5.486,1.576,5.486,4.568v8.895H48.317z
		 M48.265,229.708h-3.07c-1.627,0-2.441,0.682-2.441,1.914c0,1.234,0.762,1.891,2.52,1.891c0.945,0,1.707-0.105,2.416-0.762
		c0.42-0.393,0.576-1.023,0.576-1.967V229.708z"/>
	<path fill="#8E8E8D" d="M61.995,225.403c-0.602-0.604-1.074-0.893-1.992-0.893c-1.445,0-2.652,1.156-2.652,2.992v8.082h-2.676
		V222.28H57.3v1.443c0.682-0.945,2.047-1.602,3.541-1.602c1.287,0,2.258,0.342,3.176,1.26L61.995,225.403z"/>
	<path fill="#8E8E8D" d="M67.849,229.708c0,2.309,1.182,3.725,3.385,3.725c1.496,0,2.283-0.418,3.229-1.363l1.707,1.6
		c-1.367,1.367-2.652,2.074-4.988,2.074c-3.332,0-5.982-1.758-5.982-6.824c0-4.328,2.23-6.797,5.643-6.797
		c3.568,0,5.641,2.572,5.641,6.457v1.129H67.849z M73.466,226.034c-0.447-0.998-1.365-1.68-2.625-1.68
		c-1.287,0-2.205,0.682-2.65,1.68c-0.262,0.576-0.316,0.996-0.342,1.811h5.984C73.778,227.03,73.728,226.61,73.466,226.034z"/>
	<path fill="#8E8E8D" d="M97.612,235.585l-5.248-9.211l-3.148,3.779v5.432h-2.834v-18.684h2.834v9.395l7.635-9.395h3.465
		l-6.063,7.322l6.693,11.361H97.612z"/>
	<path fill="#8E8E8D" d="M111.728,234.169c-0.865,0.893-2.178,1.574-3.988,1.574s-3.098-0.682-3.963-1.574
		c-1.26-1.313-1.574-2.992-1.574-5.25c0-2.229,0.314-3.908,1.574-5.221c0.865-0.893,2.152-1.576,3.963-1.576
		s3.123,0.684,3.988,1.576c1.26,1.313,1.574,2.992,1.574,5.221C113.302,231.177,112.987,232.856,111.728,234.169z M109.706,225.272
		c-0.498-0.498-1.18-0.762-1.967-0.762s-1.443,0.264-1.941,0.762c-0.814,0.813-0.918,2.205-0.918,3.646
		c0,1.445,0.104,2.836,0.918,3.648c0.498,0.5,1.154,0.789,1.941,0.789s1.469-0.289,1.967-0.789c0.814-0.813,0.92-2.203,0.92-3.648
		C110.626,227.478,110.521,226.085,109.706,225.272z"/>
	<path fill="#8E8E8D" d="M124.692,235.585v-8.107c0-2.074-1.182-2.967-2.676-2.967c-1.496,0-2.756,0.92-2.756,2.967v8.107h-2.678
		V222.28h2.625v1.34c0.918-0.998,2.205-1.498,3.543-1.498c1.365,0,2.494,0.447,3.281,1.209c1.023,0.996,1.338,2.256,1.338,3.752
		v8.502H124.692z"/>
	<path fill="#8E8E8D" d="M130.151,235.585v-2.125l6.615-8.791h-6.248v-2.389h9.553v2.125l-6.664,8.793h6.664v2.387H130.151z"/>
	<path fill="#8E8E8D" d="M144.923,229.708c0,2.309,1.18,3.725,3.385,3.725c1.496,0,2.283-0.418,3.227-1.363l1.707,1.6
		c-1.365,1.367-2.65,2.074-4.986,2.074c-3.332,0-5.982-1.758-5.982-6.824c0-4.328,2.229-6.797,5.641-6.797
		c3.57,0,5.643,2.572,5.643,6.457v1.129H144.923z M150.538,226.034c-0.445-0.998-1.365-1.68-2.625-1.68
		c-1.285,0-2.203,0.682-2.65,1.68c-0.262,0.576-0.314,0.996-0.34,1.811h5.982C150.853,227.03,150.8,226.61,150.538,226.034z"/>
	<path fill="#8E8E8D" d="M166.12,234.562c-0.736,0.736-1.865,1.182-3.229,1.182c-1.416,0-2.52-0.34-3.49-1.521v6.744h-2.676V222.28
		h2.623v1.418c0.998-1.207,2.1-1.576,3.518-1.576c1.363,0,2.518,0.447,3.254,1.182c1.285,1.313,1.494,3.438,1.494,5.615
		C167.614,231.099,167.405,233.251,166.12,234.562z M162.183,224.511c-2.441,0-2.781,2.049-2.781,4.408
		c0,2.363,0.34,4.438,2.781,4.438c2.414,0,2.756-2.074,2.756-4.438C164.938,226.56,164.597,224.511,162.183,224.511z"/>
	<path fill="#8E8E8D" d="M174.897,235.585c-2.492,0-3.646-1.783-3.646-3.699v-7.559h-1.523v-2.047h1.523v-3.805h2.676v3.805h2.572
		v2.047h-2.572v7.428c0,0.971,0.473,1.547,1.471,1.547h1.102v2.283H174.897z"/>
	<path fill="#8E8E8D" d="M181.292,229.708c0,2.309,1.182,3.725,3.387,3.725c1.496,0,2.283-0.418,3.229-1.363l1.705,1.6
		c-1.365,1.367-2.65,2.074-4.986,2.074c-3.334,0-5.984-1.758-5.984-6.824c0-4.328,2.232-6.797,5.643-6.797
		c3.568,0,5.643,2.572,5.643,6.457v1.129H181.292z M186.909,226.034c-0.447-0.998-1.365-1.68-2.625-1.68
		c-1.285,0-2.205,0.682-2.65,1.68c-0.262,0.576-0.314,0.996-0.342,1.811h5.984C187.224,227.03,187.171,226.61,186.909,226.034z"/>
	<path fill="#8E8E8D" d="M192.872,235.585v-3.201h3.201v3.201H192.872z"/>
	<path fill="#8E8E8D" d="M211.56,235.743c-2.807,0-4.803-0.656-6.613-2.467l1.863-1.863c1.365,1.365,2.914,1.811,4.803,1.811
		c2.467,0,3.857-1.049,3.857-2.887c0-0.84-0.209-1.496-0.734-1.941c-0.473-0.42-1.102-0.656-2.047-0.787l-2.205-0.314
		c-1.521-0.236-2.703-0.709-3.516-1.496c-0.918-0.84-1.391-2.047-1.391-3.596c0-3.254,2.361-5.459,6.246-5.459
		c2.492,0,4.197,0.629,5.799,2.125l-1.783,1.785c-1.156-1.102-2.521-1.443-4.121-1.443c-2.205,0-3.385,1.207-3.385,2.912
		c0,0.684,0.184,1.313,0.682,1.734c0.473,0.418,1.023,0.682,2.047,0.838l2.23,0.342c1.705,0.262,2.65,0.656,3.465,1.391
		c0.998,0.918,1.521,2.205,1.521,3.832C218.278,233.696,215.497,235.743,211.56,235.743z"/>
	<path fill="#8E8E8D" d="M229.021,235.585v-1.205c-0.971,0.969-1.889,1.363-3.541,1.363c-1.654,0-2.758-0.395-3.57-1.207
		c-0.682-0.709-1.049-1.732-1.049-2.859c0-2.232,1.547-3.832,4.619-3.832h3.49v-0.945c0-1.707-0.814-2.494-2.914-2.494
		c-1.418,0-2.152,0.369-2.912,1.313l-1.732-1.652c1.232-1.471,2.52-1.943,4.75-1.943c3.674,0,5.484,1.576,5.484,4.568v8.895H229.021
		z M228.97,229.708h-3.072c-1.627,0-2.439,0.682-2.439,1.914c0,1.234,0.76,1.891,2.52,1.891c0.943,0,1.705-0.105,2.414-0.762
		c0.42-0.393,0.578-1.023,0.578-1.967V229.708z"/>
	<path fill="#8E8E8D" d="M243.386,235.585v-1.338c-0.918,0.998-2.205,1.496-3.543,1.496c-1.365,0-2.494-0.445-3.281-1.207
		c-1.023-0.998-1.338-2.258-1.338-3.752v-8.504h2.676v8.109c0,2.074,1.182,2.967,2.678,2.967s2.756-0.92,2.756-2.967v-8.109h2.676
		v13.305H243.386z"/>
	<path fill="#8E8E8D" d="M259.22,234.562c-0.732,0.736-1.914,1.182-3.252,1.182c-1.418,0-2.52-0.367-3.518-1.574v1.416h-2.625
		v-18.684h2.678v6.719c0.971-1.156,2.072-1.498,3.49-1.498c1.338,0,2.494,0.447,3.227,1.182c1.287,1.313,1.498,3.438,1.498,5.615
		C260.718,231.124,260.507,233.251,259.22,234.562z M255.284,224.511c-2.439,0-2.781,2.049-2.781,4.408
		c0,2.363,0.342,4.438,2.781,4.438c2.414,0,2.756-2.074,2.756-4.438C258.04,226.56,257.698,224.511,255.284,224.511z"/>
	<path fill="#8E8E8D" d="M266.058,229.708c0,2.309,1.182,3.725,3.385,3.725c1.498,0,2.285-0.418,3.229-1.363l1.707,1.6
		c-1.365,1.367-2.65,2.074-4.986,2.074c-3.334,0-5.984-1.758-5.984-6.824c0-4.328,2.23-6.797,5.643-6.797
		c3.568,0,5.643,2.572,5.643,6.457v1.129H266.058z M271.675,226.034c-0.447-0.998-1.365-1.68-2.625-1.68
		c-1.287,0-2.205,0.682-2.65,1.68c-0.262,0.576-0.314,0.996-0.342,1.811h5.984C271.989,227.03,271.937,226.61,271.675,226.034z"/>
	<path fill="#8E8E8D" d="M285.183,225.403c-0.604-0.604-1.076-0.893-1.994-0.893c-1.445,0-2.65,1.156-2.65,2.992v8.082h-2.678
		V222.28h2.625v1.443c0.682-0.945,2.047-1.602,3.543-1.602c1.285,0,2.256,0.342,3.176,1.26L285.183,225.403z"/>
	<path fill="#8E8E8D" d="M291.036,229.708c0,2.309,1.18,3.725,3.383,3.725c1.496,0,2.283-0.418,3.229-1.363l1.707,1.6
		c-1.365,1.367-2.652,2.074-4.986,2.074c-3.332,0-5.984-1.758-5.984-6.824c0-4.328,2.23-6.797,5.643-6.797
		c3.568,0,5.641,2.572,5.641,6.457v1.129H291.036z M296.651,226.034c-0.447-0.998-1.365-1.68-2.625-1.68
		c-1.285,0-2.203,0.682-2.65,1.68c-0.262,0.576-0.314,0.996-0.34,1.811h5.982C296.966,227.03,296.913,226.61,296.651,226.034z"/>
	<path fill="#8E8E8D" d="M315.97,235.743c-3.805,0-6.691-2.598-6.691-6.455v-12.387h2.834v12.256c0,2.492,1.521,4.041,3.857,4.041
		s3.885-1.549,3.885-4.041v-12.256h2.834v12.387C322.688,233.146,319.774,235.743,315.97,235.743z"/>
	<path fill="#8E8E8D" d="M342.759,235.585v-8.107c0-2.074-1.182-2.967-2.678-2.967c-1.443,0-2.756,0.92-2.756,2.834v8.24h-2.676
		v-8.107c0-2.074-1.182-2.967-2.678-2.967s-2.756,0.92-2.756,2.967v8.107h-2.676V222.28h2.623v1.34
		c0.893-0.973,2.205-1.498,3.543-1.498c1.654,0,2.939,0.656,3.779,1.943c1.076-1.313,2.414-1.943,4.172-1.943
		c1.365,0,2.572,0.447,3.359,1.209c1.023,0.996,1.418,2.256,1.418,3.752v8.502H342.759z"/>
	<path fill="#8E8E8D" d="M362.218,235.585h-2.283l-3.123-9.289l-3.096,9.289h-2.311l-4.119-13.305h2.834l2.572,9.369l3.096-9.369
		h2.074l3.07,9.369l2.572-9.369h2.859L362.218,235.585z"/>
	<path fill="#8E8E8D" d="M370.382,229.708c0,2.309,1.182,3.725,3.385,3.725c1.496,0,2.283-0.418,3.229-1.363l1.705,1.6
		c-1.363,1.367-2.65,2.074-4.984,2.074c-3.334,0-5.984-1.758-5.984-6.824c0-4.328,2.23-6.797,5.643-6.797
		c3.568,0,5.643,2.572,5.643,6.457v1.129H370.382z M375.997,226.034c-0.445-0.998-1.363-1.68-2.623-1.68
		c-1.287,0-2.205,0.682-2.65,1.68c-0.264,0.576-0.314,0.996-0.342,1.811h5.982C376.313,227.03,376.261,226.61,375.997,226.034z"/>
	<path fill="#8E8E8D" d="M385.708,235.585c-2.545,0-3.646-1.705-3.646-3.674v-15.01h2.676v14.854c0,1.023,0.369,1.547,1.443,1.547
		h1.182v2.283H385.708z"/>
	<path fill="#8E8E8D" d="M393.759,235.585c-2.494,0-3.648-1.783-3.648-3.699v-7.559h-1.521v-2.047h1.521v-3.805h2.678v3.805h2.572
		v2.047h-2.572v7.428c0,0.971,0.473,1.547,1.469,1.547h1.104v2.283H393.759z"/>
	<path fill="#8E8E8D" d="M398.657,235.585v-3.201h3.201v3.201H398.657z"/>
</g>
<g>
	<g>
		<defs>
			<path id="SVGID_1_" d="M537.921,141.3c-17.248,25.474-51.555,32.489-77.36,16.131l-23.16,13.421
				c15.391,12.895,35.223,20.661,56.871,20.661c42.122,0,77.379-29.389,86.387-68.782l-33.297-19.235
				C548.73,116.357,545.739,129.752,537.921,141.3z"/>
		</defs>
		<use xlink:href="#SVGID_1_"  overflow="visible" fill="#0075BF"/>
		<clipPath id="SVGID_2_">
			<use xlink:href="#SVGID_1_"  overflow="visible"/>
		</clipPath>
		<path opacity="0.5" clip-path="url(#SVGID_2_)" fill="#FFFFFF" d="M528.056,163.307c-37.046,15.557-79.688-1.869-95.24-38.915
			c-15.555-37.044,1.867-79.687,38.914-95.242c37.043-15.552,79.684,1.869,95.238,38.914
			C582.525,105.109,565.104,147.755,528.056,163.307z"/>
	</g>
	<g>
		<defs>
			<path id="SVGID_3_" d="M443.923,77.654c4.689-6.924,10.639-12.485,17.335-16.583v-40.43
				c-32.589,13.092-55.602,44.985-55.602,82.256c0,26.253,11.42,49.836,29.561,66.063l22.818-13.225
				C432.961,137.927,426.59,103.251,443.923,77.654z"/>
		</defs>
		<use xlink:href="#SVGID_3_"  overflow="visible" fill="#95C11F"/>
		<clipPath id="SVGID_4_">
			<use xlink:href="#SVGID_3_"  overflow="visible"/>
		</clipPath>
		<path opacity="0.5" clip-path="url(#SVGID_4_)" fill="#FFFFFF" d="M528.056,163.307c-37.046,15.557-79.688-1.869-95.24-38.915
			c-15.555-37.044,1.867-79.687,38.914-95.242c37.043-15.552,79.684,1.869,95.238,38.914
			C582.525,105.109,565.104,147.755,528.056,163.307z"/>
	</g>
	<g>
		<defs>
			<path id="SVGID_5_" d="M522.744,62.479c13.38,9.06,21.668,22.826,24.151,37.593l34.354,19.844
				c1.071-5.507,1.639-11.196,1.639-17.018c0-48.941-39.675-88.616-88.616-88.616c-10.636,0-20.833,1.875-30.281,5.312v39.913
				C481.997,49.821,504.64,50.22,522.744,62.479z"/>
		</defs>
		<use xlink:href="#SVGID_5_"  overflow="visible" fill="#8E8E8D"/>
		<clipPath id="SVGID_6_">
			<use xlink:href="#SVGID_5_"  overflow="visible"/>
		</clipPath>
		<path opacity="0.5" clip-path="url(#SVGID_6_)" fill="#FFFFFF" d="M528.056,163.307c-37.046,15.557-79.688-1.869-95.24-38.915
			c-15.555-37.044,1.867-79.687,38.914-95.242c37.043-15.552,79.684,1.869,95.238,38.914
			C582.525,105.109,565.104,147.755,528.056,163.307z"/>
	</g>
</g>
</svg>
